STARTFONT 2.1
COMMENT Exported by Fony v1.4.7
FONT M42_FLIGH
SIZE 12 96 96
FONTBOUNDINGBOX 16 11 0 -4
STARTPROPERTIES 6
COPYRIGHT "You may wish to put your copyright here"
RESOLUTION_X 96
RESOLUTION_Y 96
FONT_ASCENT 8
FONT_DESCENT 4
DEFAULT_CHAR 0
ENDPROPERTIES
CHARS 256
STARTCHAR 000
ENCODING 0
SWIDTH 72 0
DWIDTH 1 0
BBX 0 0 0 0
BITMAP
ENDCHAR
STARTCHAR 001
ENCODING 1
SWIDTH 72 0
DWIDTH 1 0
BBX 0 0 0 0
BITMAP
ENDCHAR
STARTCHAR 002
ENCODING 2
SWIDTH 72 0
DWIDTH 1 0
BBX 0 0 0 0
BITMAP
ENDCHAR
STARTCHAR 003
ENCODING 3
SWIDTH 72 0
DWIDTH 1 0
BBX 0 0 0 0
BITMAP
ENDCHAR
STARTCHAR 004
ENCODING 4
SWIDTH 72 0
DWIDTH 1 0
BBX 0 0 0 0
BITMAP
ENDCHAR
STARTCHAR 005
ENCODING 5
SWIDTH 72 0
DWIDTH 1 0
BBX 0 0 0 0
BITMAP
ENDCHAR
STARTCHAR 006
ENCODING 6
SWIDTH 72 0
DWIDTH 1 0
BBX 0 0 0 0
BITMAP
ENDCHAR
STARTCHAR 007
ENCODING 7
SWIDTH 72 0
DWIDTH 1 0
BBX 0 0 0 0
BITMAP
ENDCHAR
STARTCHAR 008
ENCODING 8
SWIDTH 72 0
DWIDTH 1 0
BBX 0 0 0 0
BITMAP
ENDCHAR
STARTCHAR 009
ENCODING 9
SWIDTH 72 0
DWIDTH 1 0
BBX 0 0 0 0
BITMAP
ENDCHAR
STARTCHAR 010
ENCODING 10
SWIDTH 72 0
DWIDTH 1 0
BBX 0 0 0 0
BITMAP
ENDCHAR
STARTCHAR 011
ENCODING 11
SWIDTH 72 0
DWIDTH 1 0
BBX 0 0 0 0
BITMAP
ENDCHAR
STARTCHAR 012
ENCODING 12
SWIDTH 72 0
DWIDTH 1 0
BBX 0 0 0 0
BITMAP
ENDCHAR
STARTCHAR 013
ENCODING 13
SWIDTH 72 0
DWIDTH 1 0
BBX 0 0 0 0
BITMAP
ENDCHAR
STARTCHAR 014
ENCODING 14
SWIDTH 72 0
DWIDTH 1 0
BBX 0 0 0 0
BITMAP
ENDCHAR
STARTCHAR 015
ENCODING 15
SWIDTH 72 0
DWIDTH 1 0
BBX 0 0 0 0
BITMAP
ENDCHAR
STARTCHAR 016
ENCODING 16
SWIDTH 72 0
DWIDTH 1 0
BBX 0 0 0 0
BITMAP
ENDCHAR
STARTCHAR 017
ENCODING 17
SWIDTH 72 0
DWIDTH 1 0
BBX 0 0 0 0
BITMAP
ENDCHAR
STARTCHAR 018
ENCODING 18
SWIDTH 72 0
DWIDTH 1 0
BBX 0 0 0 0
BITMAP
ENDCHAR
STARTCHAR 019
ENCODING 19
SWIDTH 72 0
DWIDTH 1 0
BBX 0 0 0 0
BITMAP
ENDCHAR
STARTCHAR 020
ENCODING 20
SWIDTH 72 0
DWIDTH 1 0
BBX 0 0 0 0
BITMAP
ENDCHAR
STARTCHAR 021
ENCODING 21
SWIDTH 72 0
DWIDTH 1 0
BBX 0 0 0 0
BITMAP
ENDCHAR
STARTCHAR 022
ENCODING 22
SWIDTH 72 0
DWIDTH 1 0
BBX 0 0 0 0
BITMAP
ENDCHAR
STARTCHAR 023
ENCODING 23
SWIDTH 72 0
DWIDTH 1 0
BBX 0 0 0 0
BITMAP
ENDCHAR
STARTCHAR 024
ENCODING 24
SWIDTH 72 0
DWIDTH 1 0
BBX 0 0 0 0
BITMAP
ENDCHAR
STARTCHAR 025
ENCODING 25
SWIDTH 72 0
DWIDTH 1 0
BBX 0 0 0 0
BITMAP
ENDCHAR
STARTCHAR 026
ENCODING 26
SWIDTH 72 0
DWIDTH 1 0
BBX 0 0 0 0
BITMAP
ENDCHAR
STARTCHAR 027
ENCODING 27
SWIDTH 72 0
DWIDTH 1 0
BBX 0 0 0 0
BITMAP
ENDCHAR
STARTCHAR 028
ENCODING 28
SWIDTH 72 0
DWIDTH 1 0
BBX 0 0 0 0
BITMAP
ENDCHAR
STARTCHAR 029
ENCODING 29
SWIDTH 72 0
DWIDTH 1 0
BBX 0 0 0 0
BITMAP
ENDCHAR
STARTCHAR 030
ENCODING 30
SWIDTH 288 0
DWIDTH 4 0
BBX 4 4 0 0
BITMAP
60
60
60
F0
ENDCHAR
STARTCHAR 031
ENCODING 31
SWIDTH 288 0
DWIDTH 4 0
BBX 4 4 0 2
BITMAP
F0
60
60
60
ENDCHAR
STARTCHAR 032
ENCODING 32
SWIDTH 432 0
DWIDTH 6 0
BBX 0 0 0 0
BITMAP
ENDCHAR
STARTCHAR 033
ENCODING 33
SWIDTH 288 0
DWIDTH 4 0
BBX 3 8 0 0
BITMAP
E0
E0
E0
E0
E0
00
E0
E0
ENDCHAR
STARTCHAR 034
ENCODING 34
SWIDTH 432 0
DWIDTH 6 0
BBX 5 3 0 5
BITMAP
D8
D8
D8
ENDCHAR
STARTCHAR 035
ENCODING 35
SWIDTH 648 0
DWIDTH 9 0
BBX 8 8 0 0
BITMAP
66
FF
FF
66
66
FF
FF
66
ENDCHAR
STARTCHAR 036
ENCODING 36
SWIDTH 648 0
DWIDTH 9 0
BBX 8 8 0 0
BITMAP
7F
FF
D8
FE
7F
1B
FF
FE
ENDCHAR
STARTCHAR 037
ENCODING 37
SWIDTH 792 0
DWIDTH 11 0
BBX 10 8 0 0
BITMAP
7180
FB80
DF00
FF80
7FC0
3EC0
77C0
6380
ENDCHAR
STARTCHAR 038
ENCODING 38
SWIDTH 864 0
DWIDTH 12 0
BBX 11 8 0 0
BITMAP
3F00
7F80
7380
7C00
FFC0
EFC0
FFE0
7EE0
ENDCHAR
STARTCHAR 039
ENCODING 39
SWIDTH 216 0
DWIDTH 3 0
BBX 2 3 0 5
BITMAP
C0
C0
C0
ENDCHAR
STARTCHAR 040
ENCODING 40
SWIDTH 360 0
DWIDTH 5 0
BBX 4 8 0 0
BITMAP
70
F0
C0
C0
C0
C0
F0
70
ENDCHAR
STARTCHAR 041
ENCODING 41
SWIDTH 360 0
DWIDTH 5 0
BBX 4 8 0 0
BITMAP
E0
F0
30
30
30
30
F0
E0
ENDCHAR
STARTCHAR 042
ENCODING 42
SWIDTH 648 0
DWIDTH 9 0
BBX 8 8 0 0
BITMAP
18
DB
FF
7E
7E
FF
DB
18
ENDCHAR
STARTCHAR 043
ENCODING 43
SWIDTH 648 0
DWIDTH 9 0
BBX 8 8 0 0
BITMAP
18
18
18
FF
FF
18
18
18
ENDCHAR
STARTCHAR 044
ENCODING 44
SWIDTH 216 0
DWIDTH 3 0
BBX 2 3 0 -1
BITMAP
C0
C0
40
ENDCHAR
STARTCHAR 045
ENCODING 45
SWIDTH 648 0
DWIDTH 9 0
BBX 8 2 0 3
BITMAP
FF
FF
ENDCHAR
STARTCHAR 046
ENCODING 46
SWIDTH 216 0
DWIDTH 3 0
BBX 2 2 0 0
BITMAP
C0
C0
ENDCHAR
STARTCHAR 047
ENCODING 47
SWIDTH 432 0
DWIDTH 6 0
BBX 5 8 0 0
BITMAP
18
18
30
30
60
60
C0
C0
ENDCHAR
STARTCHAR 048
ENCODING 48
SWIDTH 792 0
DWIDTH 11 0
BBX 10 8 0 0
BITMAP
7F80
FFC0
E1C0
E1C0
E1C0
E1C0
FFC0
7F80
ENDCHAR
STARTCHAR 049
ENCODING 49
SWIDTH 792 0
DWIDTH 11 0
BBX 5 8 2 0
BITMAP
38
78
F8
F8
38
38
38
38
ENDCHAR
STARTCHAR 050
ENCODING 50
SWIDTH 792 0
DWIDTH 11 0
BBX 10 8 0 0
BITMAP
FF80
FFC0
01C0
7FC0
FF80
E000
FFC0
FFC0
ENDCHAR
STARTCHAR 051
ENCODING 51
SWIDTH 792 0
DWIDTH 11 0
BBX 10 8 0 0
BITMAP
7F80
FFC0
E1C0
0F80
0FC0
E1C0
FFC0
7F80
ENDCHAR
STARTCHAR 052
ENCODING 52
SWIDTH 792 0
DWIDTH 11 0
BBX 10 8 0 0
BITMAP
0F80
1F80
3F80
7B80
F380
FFC0
FFC0
0380
ENDCHAR
STARTCHAR 053
ENCODING 53
SWIDTH 792 0
DWIDTH 11 0
BBX 10 8 0 0
BITMAP
FFC0
FFC0
E000
FF80
FFC0
01C0
FFC0
FF80
ENDCHAR
STARTCHAR 054
ENCODING 54
SWIDTH 792 0
DWIDTH 11 0
BBX 10 8 0 0
BITMAP
7FC0
FFC0
E000
FF80
FFC0
E1C0
FFC0
7F80
ENDCHAR
STARTCHAR 055
ENCODING 55
SWIDTH 792 0
DWIDTH 11 0
BBX 10 8 0 0
BITMAP
FFC0
FFC0
03C0
0780
0F00
1E00
3C00
3800
ENDCHAR
STARTCHAR 056
ENCODING 56
SWIDTH 792 0
DWIDTH 11 0
BBX 10 8 0 0
BITMAP
7F80
FFC0
E1C0
7F80
FFC0
E1C0
FFC0
7F80
ENDCHAR
STARTCHAR 057
ENCODING 57
SWIDTH 792 0
DWIDTH 11 0
BBX 10 8 0 0
BITMAP
7F80
FFC0
E1C0
FFC0
7FC0
01C0
FFC0
FF80
ENDCHAR
STARTCHAR 058
ENCODING 58
SWIDTH 216 0
DWIDTH 3 0
BBX 2 6 0 1
BITMAP
C0
C0
00
00
C0
C0
ENDCHAR
STARTCHAR 059
ENCODING 59
SWIDTH 216 0
DWIDTH 3 0
BBX 2 7 0 0
BITMAP
C0
C0
00
00
C0
C0
40
ENDCHAR
STARTCHAR 060
ENCODING 60
SWIDTH 432 0
DWIDTH 6 0
BBX 5 8 0 0
BITMAP
18
38
70
E0
E0
70
38
18
ENDCHAR
STARTCHAR 061
ENCODING 61
SWIDTH 648 0
DWIDTH 9 0
BBX 8 6 0 1
BITMAP
FF
FF
00
00
FF
FF
ENDCHAR
STARTCHAR 062
ENCODING 62
SWIDTH 432 0
DWIDTH 6 0
BBX 5 8 0 0
BITMAP
C0
E0
70
38
38
70
E0
C0
ENDCHAR
STARTCHAR 063
ENCODING 63
SWIDTH 792 0
DWIDTH 11 0
BBX 10 8 0 0
BITMAP
7F80
FFC0
E1C0
0FC0
0F80
0000
0E00
0E00
ENDCHAR
STARTCHAR 064
ENCODING 64
SWIDTH 720 0
DWIDTH 10 0
BBX 9 9 0 -1
BITMAP
3E00
7F00
E380
CF80
DF80
D980
F980
7E00
3E00
ENDCHAR
STARTCHAR 065
ENCODING 65
SWIDTH 864 0
DWIDTH 12 0
BBX 11 8 0 0
BITMAP
1F00
1F00
3B80
3B80
71C0
7FC0
FFE0
E0E0
ENDCHAR
STARTCHAR 066
ENCODING 66
SWIDTH 864 0
DWIDTH 12 0
BBX 11 8 0 0
BITMAP
FFC0
FFE0
E0E0
FFC0
FFE0
E0E0
FFE0
FFC0
ENDCHAR
STARTCHAR 067
ENCODING 67
SWIDTH 864 0
DWIDTH 12 0
BBX 11 8 0 0
BITMAP
7FC0
FFE0
E0E0
E000
E000
E0E0
FFE0
7FC0
ENDCHAR
STARTCHAR 068
ENCODING 68
SWIDTH 864 0
DWIDTH 12 0
BBX 11 8 0 0
BITMAP
FFC0
FFE0
E0E0
E0E0
E0E0
E0E0
FFE0
FFC0
ENDCHAR
STARTCHAR 069
ENCODING 69
SWIDTH 864 0
DWIDTH 12 0
BBX 11 8 0 0
BITMAP
FFE0
FFE0
E000
FFC0
FFC0
E000
FFE0
FFE0
ENDCHAR
STARTCHAR 070
ENCODING 70
SWIDTH 864 0
DWIDTH 12 0
BBX 11 8 0 0
BITMAP
FFE0
FFE0
E000
FFC0
FFC0
E000
E000
E000
ENDCHAR
STARTCHAR 071
ENCODING 71
SWIDTH 864 0
DWIDTH 12 0
BBX 11 8 0 0
BITMAP
7FE0
FFE0
E000
E7E0
E7E0
E0E0
FFE0
7FC0
ENDCHAR
STARTCHAR 072
ENCODING 72
SWIDTH 864 0
DWIDTH 12 0
BBX 11 8 0 0
BITMAP
E0E0
E0E0
E0E0
FFE0
FFE0
E0E0
E0E0
E0E0
ENDCHAR
STARTCHAR 073
ENCODING 73
SWIDTH 288 0
DWIDTH 4 0
BBX 3 8 0 0
BITMAP
E0
E0
E0
E0
E0
E0
E0
E0
ENDCHAR
STARTCHAR 074
ENCODING 74
SWIDTH 864 0
DWIDTH 12 0
BBX 11 8 0 0
BITMAP
00E0
00E0
00E0
00E0
E0E0
E0E0
FFE0
7FC0
ENDCHAR
STARTCHAR 075
ENCODING 75
SWIDTH 864 0
DWIDTH 12 0
BBX 11 8 0 0
BITMAP
E0E0
E3E0
EF80
FE00
FE00
EF80
E3E0
E0E0
ENDCHAR
STARTCHAR 076
ENCODING 76
SWIDTH 864 0
DWIDTH 12 0
BBX 11 8 0 0
BITMAP
E000
E000
E000
E000
E000
E000
FFE0
FFE0
ENDCHAR
STARTCHAR 077
ENCODING 77
SWIDTH 1008 0
DWIDTH 14 0
BBX 13 8 0 0
BITMAP
F8F8
F8F8
FDF8
FDF8
EFB8
EFB8
E738
E738
ENDCHAR
STARTCHAR 078
ENCODING 78
SWIDTH 864 0
DWIDTH 12 0
BBX 11 8 0 0
BITMAP
F0E0
F8E0
FCE0
FEE0
EFE0
E7E0
E3E0
E1E0
ENDCHAR
STARTCHAR 079
ENCODING 79
SWIDTH 864 0
DWIDTH 12 0
BBX 11 8 0 0
BITMAP
7FC0
FFE0
E0E0
E0E0
E0E0
E0E0
FFE0
7FC0
ENDCHAR
STARTCHAR 080
ENCODING 80
SWIDTH 864 0
DWIDTH 12 0
BBX 11 8 0 0
BITMAP
FFC0
FFE0
E0E0
E0E0
FFE0
FFC0
E000
E000
ENDCHAR
STARTCHAR 081
ENCODING 81
SWIDTH 936 0
DWIDTH 13 0
BBX 12 8 0 0
BITMAP
7FC0
FFE0
E0E0
E0E0
E3E0
E3E0
FFF0
7FF0
ENDCHAR
STARTCHAR 082
ENCODING 82
SWIDTH 864 0
DWIDTH 12 0
BBX 11 8 0 0
BITMAP
FFC0
FFE0
E0E0
E0E0
FFE0
FFC0
E0E0
E0E0
ENDCHAR
STARTCHAR 083
ENCODING 83
SWIDTH 864 0
DWIDTH 12 0
BBX 11 8 0 0
BITMAP
7FE0
FFE0
E000
FFC0
7FE0
00E0
FFE0
FFC0
ENDCHAR
STARTCHAR 084
ENCODING 84
SWIDTH 864 0
DWIDTH 12 0
BBX 11 8 0 0
BITMAP
FFE0
FFE0
0E00
0E00
0E00
0E00
0E00
0E00
ENDCHAR
STARTCHAR 085
ENCODING 85
SWIDTH 864 0
DWIDTH 12 0
BBX 11 8 0 0
BITMAP
E0E0
E0E0
E0E0
E0E0
E0E0
E0E0
FFE0
7FC0
ENDCHAR
STARTCHAR 086
ENCODING 86
SWIDTH 864 0
DWIDTH 12 0
BBX 11 8 0 0
BITMAP
E0E0
E0E0
71C0
71C0
3B80
3B80
1F00
1F00
ENDCHAR
STARTCHAR 087
ENCODING 87
SWIDTH 1152 0
DWIDTH 16 0
BBX 15 8 0 0
BITMAP
E38E
E38E
77DC
77DC
3EF8
3EF8
1C70
1C70
ENDCHAR
STARTCHAR 088
ENCODING 88
SWIDTH 864 0
DWIDTH 12 0
BBX 11 8 0 0
BITMAP
E0E0
F1E0
7BC0
3F80
3F80
7BC0
F1E0
E0E0
ENDCHAR
STARTCHAR 089
ENCODING 89
SWIDTH 864 0
DWIDTH 12 0
BBX 11 8 0 0
BITMAP
E0E0
F1E0
7BC0
3F80
1F00
0E00
0E00
0E00
ENDCHAR
STARTCHAR 090
ENCODING 90
SWIDTH 864 0
DWIDTH 12 0
BBX 11 8 0 0
BITMAP
FFE0
FFE0
03E0
0F80
3E00
F800
FFE0
FFE0
ENDCHAR
STARTCHAR 091
ENCODING 91
SWIDTH 360 0
DWIDTH 5 0
BBX 4 8 0 0
BITMAP
F0
F0
C0
C0
C0
C0
F0
F0
ENDCHAR
STARTCHAR 092
ENCODING 92
SWIDTH 432 0
DWIDTH 6 0
BBX 5 8 0 0
BITMAP
C0
C0
60
60
30
30
18
18
ENDCHAR
STARTCHAR 093
ENCODING 93
SWIDTH 360 0
DWIDTH 5 0
BBX 4 8 0 0
BITMAP
F0
F0
30
30
30
30
F0
F0
ENDCHAR
STARTCHAR 094
ENCODING 94
SWIDTH 504 0
DWIDTH 7 0
BBX 6 4 0 4
BITMAP
30
78
FC
CC
ENDCHAR
STARTCHAR 095
ENCODING 95
SWIDTH 504 0
DWIDTH 7 0
BBX 6 2 0 -1
BITMAP
FC
FC
ENDCHAR
STARTCHAR 096
ENCODING 96
SWIDTH 288 0
DWIDTH 4 0
BBX 3 3 0 5
BITMAP
C0
E0
60
ENDCHAR
STARTCHAR 097
ENCODING 97
SWIDTH 864 0
DWIDTH 12 0
BBX 11 8 0 0
BITMAP
1F00
1F00
3B80
3B80
71C0
7FC0
FFE0
E0E0
ENDCHAR
STARTCHAR 098
ENCODING 98
SWIDTH 864 0
DWIDTH 12 0
BBX 11 8 0 0
BITMAP
FFC0
FFE0
E0E0
FFC0
FFE0
E0E0
FFE0
FFC0
ENDCHAR
STARTCHAR 099
ENCODING 99
SWIDTH 864 0
DWIDTH 12 0
BBX 11 8 0 0
BITMAP
7FC0
FFE0
E0E0
E000
E000
E0E0
FFE0
7FC0
ENDCHAR
STARTCHAR 100
ENCODING 100
SWIDTH 864 0
DWIDTH 12 0
BBX 11 8 0 0
BITMAP
FFC0
FFE0
E0E0
E0E0
E0E0
E0E0
FFE0
FFC0
ENDCHAR
STARTCHAR 101
ENCODING 101
SWIDTH 864 0
DWIDTH 12 0
BBX 11 8 0 0
BITMAP
FFE0
FFE0
E000
FFC0
FFC0
E000
FFE0
FFE0
ENDCHAR
STARTCHAR 102
ENCODING 102
SWIDTH 864 0
DWIDTH 12 0
BBX 11 8 0 0
BITMAP
FFE0
FFE0
E000
FFC0
FFC0
E000
E000
E000
ENDCHAR
STARTCHAR 103
ENCODING 103
SWIDTH 864 0
DWIDTH 12 0
BBX 11 8 0 0
BITMAP
7FE0
FFE0
E000
E7E0
E7E0
E0E0
FFE0
7FC0
ENDCHAR
STARTCHAR 104
ENCODING 104
SWIDTH 864 0
DWIDTH 12 0
BBX 11 8 0 0
BITMAP
E0E0
E0E0
E0E0
FFE0
FFE0
E0E0
E0E0
E0E0
ENDCHAR
STARTCHAR 105
ENCODING 105
SWIDTH 288 0
DWIDTH 4 0
BBX 3 8 0 0
BITMAP
E0
E0
E0
E0
E0
E0
E0
E0
ENDCHAR
STARTCHAR 106
ENCODING 106
SWIDTH 864 0
DWIDTH 12 0
BBX 11 8 0 0
BITMAP
00E0
00E0
00E0
00E0
E0E0
E0E0
FFE0
7FC0
ENDCHAR
STARTCHAR 107
ENCODING 107
SWIDTH 864 0
DWIDTH 12 0
BBX 11 8 0 0
BITMAP
E0E0
E3E0
EF80
FE00
FE00
EF80
E3E0
E0E0
ENDCHAR
STARTCHAR 108
ENCODING 108
SWIDTH 864 0
DWIDTH 12 0
BBX 11 8 0 0
BITMAP
E000
E000
E000
E000
E000
E000
FFE0
FFE0
ENDCHAR
STARTCHAR 109
ENCODING 109
SWIDTH 1008 0
DWIDTH 14 0
BBX 13 8 0 0
BITMAP
F8F8
F8F8
FDF8
FDF8
EFB8
EFB8
E738
E738
ENDCHAR
STARTCHAR 110
ENCODING 110
SWIDTH 864 0
DWIDTH 12 0
BBX 11 8 0 0
BITMAP
F0E0
F8E0
FCE0
FEE0
EFE0
E7E0
E3E0
E1E0
ENDCHAR
STARTCHAR 111
ENCODING 111
SWIDTH 864 0
DWIDTH 12 0
BBX 11 8 0 0
BITMAP
7FC0
FFE0
E0E0
E0E0
E0E0
E0E0
FFE0
7FC0
ENDCHAR
STARTCHAR 112
ENCODING 112
SWIDTH 864 0
DWIDTH 12 0
BBX 11 8 0 0
BITMAP
FFC0
FFE0
E0E0
E0E0
FFE0
FFC0
E000
E000
ENDCHAR
STARTCHAR 113
ENCODING 113
SWIDTH 936 0
DWIDTH 13 0
BBX 12 8 0 0
BITMAP
7FC0
FFE0
E0E0
E0E0
E3E0
E3E0
FFF0
7FF0
ENDCHAR
STARTCHAR 114
ENCODING 114
SWIDTH 864 0
DWIDTH 12 0
BBX 11 8 0 0
BITMAP
FFC0
FFE0
E0E0
E0E0
FFE0
FFC0
E0E0
E0E0
ENDCHAR
STARTCHAR 115
ENCODING 115
SWIDTH 864 0
DWIDTH 12 0
BBX 11 8 0 0
BITMAP
7FE0
FFE0
E000
FFC0
7FE0
00E0
FFE0
FFC0
ENDCHAR
STARTCHAR 116
ENCODING 116
SWIDTH 864 0
DWIDTH 12 0
BBX 11 8 0 0
BITMAP
FFE0
FFE0
0E00
0E00
0E00
0E00
0E00
0E00
ENDCHAR
STARTCHAR 117
ENCODING 117
SWIDTH 864 0
DWIDTH 12 0
BBX 11 8 0 0
BITMAP
E0E0
E0E0
E0E0
E0E0
E0E0
E0E0
FFE0
7FC0
ENDCHAR
STARTCHAR 118
ENCODING 118
SWIDTH 864 0
DWIDTH 12 0
BBX 11 8 0 0
BITMAP
E0E0
E0E0
71C0
71C0
3B80
3B80
1F00
1F00
ENDCHAR
STARTCHAR 119
ENCODING 119
SWIDTH 1152 0
DWIDTH 16 0
BBX 15 8 0 0
BITMAP
E38E
E38E
77DC
77DC
3EF8
3EF8
1C70
1C70
ENDCHAR
STARTCHAR 120
ENCODING 120
SWIDTH 864 0
DWIDTH 12 0
BBX 11 8 0 0
BITMAP
E0E0
F1E0
7BC0
3F80
3F80
7BC0
F1E0
E0E0
ENDCHAR
STARTCHAR 121
ENCODING 121
SWIDTH 864 0
DWIDTH 12 0
BBX 11 8 0 0
BITMAP
E0E0
F1E0
7BC0
3F80
1F00
0E00
0E00
0E00
ENDCHAR
STARTCHAR 122
ENCODING 122
SWIDTH 864 0
DWIDTH 12 0
BBX 11 8 0 0
BITMAP
FFE0
FFE0
03E0
0F80
3E00
F800
FFE0
FFE0
ENDCHAR
STARTCHAR 123
ENCODING 123
SWIDTH 360 0
DWIDTH 5 0
BBX 4 9 0 -1
BITMAP
30
70
60
60
C0
60
60
70
30
ENDCHAR
STARTCHAR 124
ENCODING 124
SWIDTH 216 0
DWIDTH 3 0
BBX 2 8 0 0
BITMAP
C0
C0
C0
C0
C0
C0
C0
C0
ENDCHAR
STARTCHAR 125
ENCODING 125
SWIDTH 360 0
DWIDTH 5 0
BBX 4 9 0 -1
BITMAP
C0
E0
60
60
30
60
60
E0
C0
ENDCHAR
STARTCHAR 126
ENCODING 126
SWIDTH 576 0
DWIDTH 8 0
BBX 7 3 0 3
BITMAP
76
FE
DC
ENDCHAR
STARTCHAR 127
ENCODING 127
SWIDTH 288 0
DWIDTH 4 0
BBX 4 6 0 0
BITMAP
F0
90
90
90
90
F0
ENDCHAR
STARTCHAR 128
ENCODING 128
SWIDTH 288 0
DWIDTH 4 0
BBX 1 1 2 3
BITMAP
80
ENDCHAR
STARTCHAR 129
ENCODING 129
SWIDTH 792 0
DWIDTH 11 0
BBX 10 8 0 0
BITMAP
7F80
FFC0
E1C0
0FC0
0F80
0000
0E00
0E00
ENDCHAR
STARTCHAR 130
ENCODING 130
SWIDTH 792 0
DWIDTH 11 0
BBX 10 8 0 0
BITMAP
7F80
FFC0
E1C0
0FC0
0F80
0000
0E00
0E00
ENDCHAR
STARTCHAR 131
ENCODING 131
SWIDTH 792 0
DWIDTH 11 0
BBX 10 8 0 0
BITMAP
7F80
FFC0
E1C0
0FC0
0F80
0000
0E00
0E00
ENDCHAR
STARTCHAR 132
ENCODING 132
SWIDTH 792 0
DWIDTH 11 0
BBX 10 8 0 0
BITMAP
7F80
FFC0
E1C0
0FC0
0F80
0000
0E00
0E00
ENDCHAR
STARTCHAR 133
ENCODING 133
SWIDTH 792 0
DWIDTH 11 0
BBX 10 8 0 0
BITMAP
7F80
FFC0
E1C0
0FC0
0F80
0000
0E00
0E00
ENDCHAR
STARTCHAR 134
ENCODING 134
SWIDTH 792 0
DWIDTH 11 0
BBX 10 8 0 0
BITMAP
7F80
FFC0
E1C0
0FC0
0F80
0000
0E00
0E00
ENDCHAR
STARTCHAR 135
ENCODING 135
SWIDTH 792 0
DWIDTH 11 0
BBX 10 8 0 0
BITMAP
7F80
FFC0
E1C0
0FC0
0F80
0000
0E00
0E00
ENDCHAR
STARTCHAR 136
ENCODING 136
SWIDTH 792 0
DWIDTH 11 0
BBX 10 8 0 0
BITMAP
7F80
FFC0
E1C0
0FC0
0F80
0000
0E00
0E00
ENDCHAR
STARTCHAR 137
ENCODING 137
SWIDTH 792 0
DWIDTH 11 0
BBX 10 8 0 0
BITMAP
7F80
FFC0
E1C0
0FC0
0F80
0000
0E00
0E00
ENDCHAR
STARTCHAR 138
ENCODING 138
SWIDTH 792 0
DWIDTH 11 0
BBX 10 8 0 0
BITMAP
7F80
FFC0
E1C0
0FC0
0F80
0000
0E00
0E00
ENDCHAR
STARTCHAR 139
ENCODING 139
SWIDTH 792 0
DWIDTH 11 0
BBX 10 8 0 0
BITMAP
7F80
FFC0
E1C0
0FC0
0F80
0000
0E00
0E00
ENDCHAR
STARTCHAR 140
ENCODING 140
SWIDTH 792 0
DWIDTH 11 0
BBX 10 8 0 0
BITMAP
7F80
FFC0
E1C0
0FC0
0F80
0000
0E00
0E00
ENDCHAR
STARTCHAR 141
ENCODING 141
SWIDTH 792 0
DWIDTH 11 0
BBX 10 8 0 0
BITMAP
7F80
FFC0
E1C0
0FC0
0F80
0000
0E00
0E00
ENDCHAR
STARTCHAR 142
ENCODING 142
SWIDTH 792 0
DWIDTH 11 0
BBX 10 8 0 0
BITMAP
7F80
FFC0
E1C0
0FC0
0F80
0000
0E00
0E00
ENDCHAR
STARTCHAR 143
ENCODING 143
SWIDTH 792 0
DWIDTH 11 0
BBX 10 8 0 0
BITMAP
7F80
FFC0
E1C0
0FC0
0F80
0000
0E00
0E00
ENDCHAR
STARTCHAR 144
ENCODING 144
SWIDTH 792 0
DWIDTH 11 0
BBX 10 8 0 0
BITMAP
7F80
FFC0
E1C0
0FC0
0F80
0000
0E00
0E00
ENDCHAR
STARTCHAR 145
ENCODING 145
SWIDTH 792 0
DWIDTH 11 0
BBX 10 8 0 0
BITMAP
7F80
FFC0
E1C0
0FC0
0F80
0000
0E00
0E00
ENDCHAR
STARTCHAR 146
ENCODING 146
SWIDTH 792 0
DWIDTH 11 0
BBX 10 8 0 0
BITMAP
7F80
FFC0
E1C0
0FC0
0F80
0000
0E00
0E00
ENDCHAR
STARTCHAR 147
ENCODING 147
SWIDTH 792 0
DWIDTH 11 0
BBX 10 8 0 0
BITMAP
7F80
FFC0
E1C0
0FC0
0F80
0000
0E00
0E00
ENDCHAR
STARTCHAR 148
ENCODING 148
SWIDTH 792 0
DWIDTH 11 0
BBX 10 8 0 0
BITMAP
7F80
FFC0
E1C0
0FC0
0F80
0000
0E00
0E00
ENDCHAR
STARTCHAR 149
ENCODING 149
SWIDTH 792 0
DWIDTH 11 0
BBX 10 8 0 0
BITMAP
7F80
FFC0
E1C0
0FC0
0F80
0000
0E00
0E00
ENDCHAR
STARTCHAR 150
ENCODING 150
SWIDTH 792 0
DWIDTH 11 0
BBX 10 8 0 0
BITMAP
7F80
FFC0
E1C0
0FC0
0F80
0000
0E00
0E00
ENDCHAR
STARTCHAR 151
ENCODING 151
SWIDTH 792 0
DWIDTH 11 0
BBX 10 8 0 0
BITMAP
7F80
FFC0
E1C0
0FC0
0F80
0000
0E00
0E00
ENDCHAR
STARTCHAR 152
ENCODING 152
SWIDTH 792 0
DWIDTH 11 0
BBX 10 8 0 0
BITMAP
7F80
FFC0
E1C0
0FC0
0F80
0000
0E00
0E00
ENDCHAR
STARTCHAR 153
ENCODING 153
SWIDTH 792 0
DWIDTH 11 0
BBX 10 8 0 0
BITMAP
7F80
FFC0
E1C0
0FC0
0F80
0000
0E00
0E00
ENDCHAR
STARTCHAR 154
ENCODING 154
SWIDTH 792 0
DWIDTH 11 0
BBX 10 8 0 0
BITMAP
7F80
FFC0
E1C0
0FC0
0F80
0000
0E00
0E00
ENDCHAR
STARTCHAR 155
ENCODING 155
SWIDTH 792 0
DWIDTH 11 0
BBX 10 8 0 0
BITMAP
7F80
FFC0
E1C0
0FC0
0F80
0000
0E00
0E00
ENDCHAR
STARTCHAR 156
ENCODING 156
SWIDTH 792 0
DWIDTH 11 0
BBX 10 8 0 0
BITMAP
7F80
FFC0
E1C0
0FC0
0F80
0000
0E00
0E00
ENDCHAR
STARTCHAR 157
ENCODING 157
SWIDTH 792 0
DWIDTH 11 0
BBX 10 8 0 0
BITMAP
7F80
FFC0
E1C0
0FC0
0F80
0000
0E00
0E00
ENDCHAR
STARTCHAR 158
ENCODING 158
SWIDTH 792 0
DWIDTH 11 0
BBX 10 8 0 0
BITMAP
7F80
FFC0
E1C0
0FC0
0F80
0000
0E00
0E00
ENDCHAR
STARTCHAR 159
ENCODING 159
SWIDTH 792 0
DWIDTH 11 0
BBX 10 8 0 0
BITMAP
7F80
FFC0
E1C0
0FC0
0F80
0000
0E00
0E00
ENDCHAR
STARTCHAR 160
ENCODING 160
SWIDTH 792 0
DWIDTH 11 0
BBX 10 8 0 0
BITMAP
7F80
FFC0
E1C0
0FC0
0F80
0000
0E00
0E00
ENDCHAR
STARTCHAR 161
ENCODING 161
SWIDTH 792 0
DWIDTH 11 0
BBX 10 8 0 0
BITMAP
7F80
FFC0
E1C0
0FC0
0F80
0000
0E00
0E00
ENDCHAR
STARTCHAR 162
ENCODING 162
SWIDTH 792 0
DWIDTH 11 0
BBX 10 8 0 0
BITMAP
7F80
FFC0
E1C0
0FC0
0F80
0000
0E00
0E00
ENDCHAR
STARTCHAR 163
ENCODING 163
SWIDTH 792 0
DWIDTH 11 0
BBX 10 8 0 0
BITMAP
7F80
FFC0
E1C0
0FC0
0F80
0000
0E00
0E00
ENDCHAR
STARTCHAR 164
ENCODING 164
SWIDTH 792 0
DWIDTH 11 0
BBX 10 8 0 0
BITMAP
7F80
FFC0
E1C0
0FC0
0F80
0000
0E00
0E00
ENDCHAR
STARTCHAR 165
ENCODING 165
SWIDTH 792 0
DWIDTH 11 0
BBX 10 8 0 0
BITMAP
7F80
FFC0
E1C0
0FC0
0F80
0000
0E00
0E00
ENDCHAR
STARTCHAR 166
ENCODING 166
SWIDTH 792 0
DWIDTH 11 0
BBX 10 8 0 0
BITMAP
7F80
FFC0
E1C0
0FC0
0F80
0000
0E00
0E00
ENDCHAR
STARTCHAR 167
ENCODING 167
SWIDTH 792 0
DWIDTH 11 0
BBX 10 8 0 0
BITMAP
7F80
FFC0
E1C0
0FC0
0F80
0000
0E00
0E00
ENDCHAR
STARTCHAR 168
ENCODING 168
SWIDTH 792 0
DWIDTH 11 0
BBX 10 8 0 0
BITMAP
7F80
FFC0
E1C0
0FC0
0F80
0000
0E00
0E00
ENDCHAR
STARTCHAR 169
ENCODING 169
SWIDTH 792 0
DWIDTH 11 0
BBX 10 8 0 0
BITMAP
7F80
FFC0
E1C0
0FC0
0F80
0000
0E00
0E00
ENDCHAR
STARTCHAR 170
ENCODING 170
SWIDTH 792 0
DWIDTH 11 0
BBX 10 8 0 0
BITMAP
7F80
FFC0
E1C0
0FC0
0F80
0000
0E00
0E00
ENDCHAR
STARTCHAR 171
ENCODING 171
SWIDTH 792 0
DWIDTH 11 0
BBX 10 8 0 0
BITMAP
7F80
FFC0
E1C0
0FC0
0F80
0000
0E00
0E00
ENDCHAR
STARTCHAR 172
ENCODING 172
SWIDTH 792 0
DWIDTH 11 0
BBX 10 8 0 0
BITMAP
7F80
FFC0
E1C0
0FC0
0F80
0000
0E00
0E00
ENDCHAR
STARTCHAR 173
ENCODING 173
SWIDTH 792 0
DWIDTH 11 0
BBX 10 8 0 0
BITMAP
7F80
FFC0
E1C0
0FC0
0F80
0000
0E00
0E00
ENDCHAR
STARTCHAR 174
ENCODING 174
SWIDTH 792 0
DWIDTH 11 0
BBX 10 8 0 0
BITMAP
7F80
FFC0
E1C0
0FC0
0F80
0000
0E00
0E00
ENDCHAR
STARTCHAR 175
ENCODING 175
SWIDTH 792 0
DWIDTH 11 0
BBX 10 8 0 0
BITMAP
7F80
FFC0
E1C0
0FC0
0F80
0000
0E00
0E00
ENDCHAR
STARTCHAR 176
ENCODING 176
SWIDTH 792 0
DWIDTH 11 0
BBX 10 8 0 0
BITMAP
7F80
FFC0
E1C0
0FC0
0F80
0000
0E00
0E00
ENDCHAR
STARTCHAR 177
ENCODING 177
SWIDTH 792 0
DWIDTH 11 0
BBX 10 8 0 0
BITMAP
7F80
FFC0
E1C0
0FC0
0F80
0000
0E00
0E00
ENDCHAR
STARTCHAR 178
ENCODING 178
SWIDTH 792 0
DWIDTH 11 0
BBX 10 8 0 0
BITMAP
7F80
FFC0
E1C0
0FC0
0F80
0000
0E00
0E00
ENDCHAR
STARTCHAR 179
ENCODING 179
SWIDTH 792 0
DWIDTH 11 0
BBX 10 8 0 0
BITMAP
7F80
FFC0
E1C0
0FC0
0F80
0000
0E00
0E00
ENDCHAR
STARTCHAR 180
ENCODING 180
SWIDTH 792 0
DWIDTH 11 0
BBX 10 8 0 0
BITMAP
7F80
FFC0
E1C0
0FC0
0F80
0000
0E00
0E00
ENDCHAR
STARTCHAR 181
ENCODING 181
SWIDTH 792 0
DWIDTH 11 0
BBX 10 8 0 0
BITMAP
7F80
FFC0
E1C0
0FC0
0F80
0000
0E00
0E00
ENDCHAR
STARTCHAR 182
ENCODING 182
SWIDTH 792 0
DWIDTH 11 0
BBX 10 8 0 0
BITMAP
7F80
FFC0
E1C0
0FC0
0F80
0000
0E00
0E00
ENDCHAR
STARTCHAR 183
ENCODING 183
SWIDTH 792 0
DWIDTH 11 0
BBX 10 8 0 0
BITMAP
7F80
FFC0
E1C0
0FC0
0F80
0000
0E00
0E00
ENDCHAR
STARTCHAR 184
ENCODING 184
SWIDTH 792 0
DWIDTH 11 0
BBX 10 8 0 0
BITMAP
7F80
FFC0
E1C0
0FC0
0F80
0000
0E00
0E00
ENDCHAR
STARTCHAR 185
ENCODING 185
SWIDTH 792 0
DWIDTH 11 0
BBX 10 8 0 0
BITMAP
7F80
FFC0
E1C0
0FC0
0F80
0000
0E00
0E00
ENDCHAR
STARTCHAR 186
ENCODING 186
SWIDTH 792 0
DWIDTH 11 0
BBX 10 8 0 0
BITMAP
7F80
FFC0
E1C0
0FC0
0F80
0000
0E00
0E00
ENDCHAR
STARTCHAR 187
ENCODING 187
SWIDTH 792 0
DWIDTH 11 0
BBX 10 8 0 0
BITMAP
7F80
FFC0
E1C0
0FC0
0F80
0000
0E00
0E00
ENDCHAR
STARTCHAR 188
ENCODING 188
SWIDTH 792 0
DWIDTH 11 0
BBX 10 8 0 0
BITMAP
7F80
FFC0
E1C0
0FC0
0F80
0000
0E00
0E00
ENDCHAR
STARTCHAR 189
ENCODING 189
SWIDTH 792 0
DWIDTH 11 0
BBX 10 8 0 0
BITMAP
7F80
FFC0
E1C0
0FC0
0F80
0000
0E00
0E00
ENDCHAR
STARTCHAR 190
ENCODING 190
SWIDTH 792 0
DWIDTH 11 0
BBX 10 8 0 0
BITMAP
7F80
FFC0
E1C0
0FC0
0F80
0000
0E00
0E00
ENDCHAR
STARTCHAR 191
ENCODING 191
SWIDTH 792 0
DWIDTH 11 0
BBX 10 8 0 0
BITMAP
7F80
FFC0
E1C0
0FC0
0F80
0000
0E00
0E00
ENDCHAR
STARTCHAR 192
ENCODING 192
SWIDTH 792 0
DWIDTH 11 0
BBX 10 8 0 0
BITMAP
7F80
FFC0
E1C0
0FC0
0F80
0000
0E00
0E00
ENDCHAR
STARTCHAR 193
ENCODING 193
SWIDTH 792 0
DWIDTH 11 0
BBX 10 8 0 0
BITMAP
7F80
FFC0
E1C0
0FC0
0F80
0000
0E00
0E00
ENDCHAR
STARTCHAR 194
ENCODING 194
SWIDTH 792 0
DWIDTH 11 0
BBX 10 8 0 0
BITMAP
7F80
FFC0
E1C0
0FC0
0F80
0000
0E00
0E00
ENDCHAR
STARTCHAR 195
ENCODING 195
SWIDTH 792 0
DWIDTH 11 0
BBX 10 8 0 0
BITMAP
7F80
FFC0
E1C0
0FC0
0F80
0000
0E00
0E00
ENDCHAR
STARTCHAR 196
ENCODING 196
SWIDTH 792 0
DWIDTH 11 0
BBX 10 8 0 0
BITMAP
7F80
FFC0
E1C0
0FC0
0F80
0000
0E00
0E00
ENDCHAR
STARTCHAR 197
ENCODING 197
SWIDTH 792 0
DWIDTH 11 0
BBX 10 8 0 0
BITMAP
7F80
FFC0
E1C0
0FC0
0F80
0000
0E00
0E00
ENDCHAR
STARTCHAR 198
ENCODING 198
SWIDTH 792 0
DWIDTH 11 0
BBX 10 8 0 0
BITMAP
7F80
FFC0
E1C0
0FC0
0F80
0000
0E00
0E00
ENDCHAR
STARTCHAR 199
ENCODING 199
SWIDTH 792 0
DWIDTH 11 0
BBX 10 8 0 0
BITMAP
7F80
FFC0
E1C0
0FC0
0F80
0000
0E00
0E00
ENDCHAR
STARTCHAR 200
ENCODING 200
SWIDTH 792 0
DWIDTH 11 0
BBX 10 8 0 0
BITMAP
7F80
FFC0
E1C0
0FC0
0F80
0000
0E00
0E00
ENDCHAR
STARTCHAR 201
ENCODING 201
SWIDTH 792 0
DWIDTH 11 0
BBX 10 8 0 0
BITMAP
7F80
FFC0
E1C0
0FC0
0F80
0000
0E00
0E00
ENDCHAR
STARTCHAR 202
ENCODING 202
SWIDTH 792 0
DWIDTH 11 0
BBX 10 8 0 0
BITMAP
7F80
FFC0
E1C0
0FC0
0F80
0000
0E00
0E00
ENDCHAR
STARTCHAR 203
ENCODING 203
SWIDTH 792 0
DWIDTH 11 0
BBX 10 8 0 0
BITMAP
7F80
FFC0
E1C0
0FC0
0F80
0000
0E00
0E00
ENDCHAR
STARTCHAR 204
ENCODING 204
SWIDTH 792 0
DWIDTH 11 0
BBX 10 8 0 0
BITMAP
7F80
FFC0
E1C0
0FC0
0F80
0000
0E00
0E00
ENDCHAR
STARTCHAR 205
ENCODING 205
SWIDTH 792 0
DWIDTH 11 0
BBX 10 8 0 0
BITMAP
7F80
FFC0
E1C0
0FC0
0F80
0000
0E00
0E00
ENDCHAR
STARTCHAR 206
ENCODING 206
SWIDTH 792 0
DWIDTH 11 0
BBX 10 8 0 0
BITMAP
7F80
FFC0
E1C0
0FC0
0F80
0000
0E00
0E00
ENDCHAR
STARTCHAR 207
ENCODING 207
SWIDTH 792 0
DWIDTH 11 0
BBX 10 8 0 0
BITMAP
7F80
FFC0
E1C0
0FC0
0F80
0000
0E00
0E00
ENDCHAR
STARTCHAR 208
ENCODING 208
SWIDTH 792 0
DWIDTH 11 0
BBX 10 8 0 0
BITMAP
7F80
FFC0
E1C0
0FC0
0F80
0000
0E00
0E00
ENDCHAR
STARTCHAR 209
ENCODING 209
SWIDTH 792 0
DWIDTH 11 0
BBX 10 8 0 0
BITMAP
7F80
FFC0
E1C0
0FC0
0F80
0000
0E00
0E00
ENDCHAR
STARTCHAR 210
ENCODING 210
SWIDTH 792 0
DWIDTH 11 0
BBX 10 8 0 0
BITMAP
7F80
FFC0
E1C0
0FC0
0F80
0000
0E00
0E00
ENDCHAR
STARTCHAR 211
ENCODING 211
SWIDTH 792 0
DWIDTH 11 0
BBX 10 8 0 0
BITMAP
7F80
FFC0
E1C0
0FC0
0F80
0000
0E00
0E00
ENDCHAR
STARTCHAR 212
ENCODING 212
SWIDTH 792 0
DWIDTH 11 0
BBX 10 8 0 0
BITMAP
7F80
FFC0
E1C0
0FC0
0F80
0000
0E00
0E00
ENDCHAR
STARTCHAR 213
ENCODING 213
SWIDTH 792 0
DWIDTH 11 0
BBX 10 8 0 0
BITMAP
7F80
FFC0
E1C0
0FC0
0F80
0000
0E00
0E00
ENDCHAR
STARTCHAR 214
ENCODING 214
SWIDTH 792 0
DWIDTH 11 0
BBX 10 8 0 0
BITMAP
7F80
FFC0
E1C0
0FC0
0F80
0000
0E00
0E00
ENDCHAR
STARTCHAR 215
ENCODING 215
SWIDTH 792 0
DWIDTH 11 0
BBX 10 8 0 0
BITMAP
7F80
FFC0
E1C0
0FC0
0F80
0000
0E00
0E00
ENDCHAR
STARTCHAR 216
ENCODING 216
SWIDTH 792 0
DWIDTH 11 0
BBX 10 8 0 0
BITMAP
7F80
FFC0
E1C0
0FC0
0F80
0000
0E00
0E00
ENDCHAR
STARTCHAR 217
ENCODING 217
SWIDTH 792 0
DWIDTH 11 0
BBX 10 8 0 0
BITMAP
7F80
FFC0
E1C0
0FC0
0F80
0000
0E00
0E00
ENDCHAR
STARTCHAR 218
ENCODING 218
SWIDTH 792 0
DWIDTH 11 0
BBX 10 8 0 0
BITMAP
7F80
FFC0
E1C0
0FC0
0F80
0000
0E00
0E00
ENDCHAR
STARTCHAR 219
ENCODING 219
SWIDTH 792 0
DWIDTH 11 0
BBX 10 8 0 0
BITMAP
7F80
FFC0
E1C0
0FC0
0F80
0000
0E00
0E00
ENDCHAR
STARTCHAR 220
ENCODING 220
SWIDTH 792 0
DWIDTH 11 0
BBX 10 8 0 0
BITMAP
7F80
FFC0
E1C0
0FC0
0F80
0000
0E00
0E00
ENDCHAR
STARTCHAR 221
ENCODING 221
SWIDTH 792 0
DWIDTH 11 0
BBX 10 8 0 0
BITMAP
7F80
FFC0
E1C0
0FC0
0F80
0000
0E00
0E00
ENDCHAR
STARTCHAR 222
ENCODING 222
SWIDTH 792 0
DWIDTH 11 0
BBX 10 8 0 0
BITMAP
7F80
FFC0
E1C0
0FC0
0F80
0000
0E00
0E00
ENDCHAR
STARTCHAR 223
ENCODING 223
SWIDTH 792 0
DWIDTH 11 0
BBX 10 8 0 0
BITMAP
7F80
FFC0
E1C0
0FC0
0F80
0000
0E00
0E00
ENDCHAR
STARTCHAR 224
ENCODING 224
SWIDTH 792 0
DWIDTH 11 0
BBX 10 8 0 0
BITMAP
7F80
FFC0
E1C0
0FC0
0F80
0000
0E00
0E00
ENDCHAR
STARTCHAR 225
ENCODING 225
SWIDTH 792 0
DWIDTH 11 0
BBX 10 8 0 0
BITMAP
7F80
FFC0
E1C0
0FC0
0F80
0000
0E00
0E00
ENDCHAR
STARTCHAR 226
ENCODING 226
SWIDTH 792 0
DWIDTH 11 0
BBX 10 8 0 0
BITMAP
7F80
FFC0
E1C0
0FC0
0F80
0000
0E00
0E00
ENDCHAR
STARTCHAR 227
ENCODING 227
SWIDTH 792 0
DWIDTH 11 0
BBX 10 8 0 0
BITMAP
7F80
FFC0
E1C0
0FC0
0F80
0000
0E00
0E00
ENDCHAR
STARTCHAR 228
ENCODING 228
SWIDTH 792 0
DWIDTH 11 0
BBX 10 8 0 0
BITMAP
7F80
FFC0
E1C0
0FC0
0F80
0000
0E00
0E00
ENDCHAR
STARTCHAR 229
ENCODING 229
SWIDTH 792 0
DWIDTH 11 0
BBX 10 8 0 0
BITMAP
7F80
FFC0
E1C0
0FC0
0F80
0000
0E00
0E00
ENDCHAR
STARTCHAR 230
ENCODING 230
SWIDTH 792 0
DWIDTH 11 0
BBX 10 8 0 0
BITMAP
7F80
FFC0
E1C0
0FC0
0F80
0000
0E00
0E00
ENDCHAR
STARTCHAR 231
ENCODING 231
SWIDTH 792 0
DWIDTH 11 0
BBX 10 8 0 0
BITMAP
7F80
FFC0
E1C0
0FC0
0F80
0000
0E00
0E00
ENDCHAR
STARTCHAR 232
ENCODING 232
SWIDTH 792 0
DWIDTH 11 0
BBX 10 8 0 0
BITMAP
7F80
FFC0
E1C0
0FC0
0F80
0000
0E00
0E00
ENDCHAR
STARTCHAR 233
ENCODING 233
SWIDTH 792 0
DWIDTH 11 0
BBX 10 8 0 0
BITMAP
7F80
FFC0
E1C0
0FC0
0F80
0000
0E00
0E00
ENDCHAR
STARTCHAR 234
ENCODING 234
SWIDTH 792 0
DWIDTH 11 0
BBX 10 8 0 0
BITMAP
7F80
FFC0
E1C0
0FC0
0F80
0000
0E00
0E00
ENDCHAR
STARTCHAR 235
ENCODING 235
SWIDTH 792 0
DWIDTH 11 0
BBX 10 8 0 0
BITMAP
7F80
FFC0
E1C0
0FC0
0F80
0000
0E00
0E00
ENDCHAR
STARTCHAR 236
ENCODING 236
SWIDTH 792 0
DWIDTH 11 0
BBX 10 8 0 0
BITMAP
7F80
FFC0
E1C0
0FC0
0F80
0000
0E00
0E00
ENDCHAR
STARTCHAR 237
ENCODING 237
SWIDTH 792 0
DWIDTH 11 0
BBX 10 8 0 0
BITMAP
7F80
FFC0
E1C0
0FC0
0F80
0000
0E00
0E00
ENDCHAR
STARTCHAR 238
ENCODING 238
SWIDTH 792 0
DWIDTH 11 0
BBX 10 8 0 0
BITMAP
7F80
FFC0
E1C0
0FC0
0F80
0000
0E00
0E00
ENDCHAR
STARTCHAR 239
ENCODING 239
SWIDTH 792 0
DWIDTH 11 0
BBX 10 8 0 0
BITMAP
7F80
FFC0
E1C0
0FC0
0F80
0000
0E00
0E00
ENDCHAR
STARTCHAR 240
ENCODING 240
SWIDTH 792 0
DWIDTH 11 0
BBX 10 8 0 0
BITMAP
7F80
FFC0
E1C0
0FC0
0F80
0000
0E00
0E00
ENDCHAR
STARTCHAR 241
ENCODING 241
SWIDTH 792 0
DWIDTH 11 0
BBX 10 8 0 0
BITMAP
7F80
FFC0
E1C0
0FC0
0F80
0000
0E00
0E00
ENDCHAR
STARTCHAR 242
ENCODING 242
SWIDTH 792 0
DWIDTH 11 0
BBX 10 8 0 0
BITMAP
7F80
FFC0
E1C0
0FC0
0F80
0000
0E00
0E00
ENDCHAR
STARTCHAR 243
ENCODING 243
SWIDTH 792 0
DWIDTH 11 0
BBX 10 8 0 0
BITMAP
7F80
FFC0
E1C0
0FC0
0F80
0000
0E00
0E00
ENDCHAR
STARTCHAR 244
ENCODING 244
SWIDTH 792 0
DWIDTH 11 0
BBX 10 8 0 0
BITMAP
7F80
FFC0
E1C0
0FC0
0F80
0000
0E00
0E00
ENDCHAR
STARTCHAR 245
ENCODING 245
SWIDTH 792 0
DWIDTH 11 0
BBX 10 8 0 0
BITMAP
7F80
FFC0
E1C0
0FC0
0F80
0000
0E00
0E00
ENDCHAR
STARTCHAR 246
ENCODING 246
SWIDTH 792 0
DWIDTH 11 0
BBX 10 8 0 0
BITMAP
7F80
FFC0
E1C0
0FC0
0F80
0000
0E00
0E00
ENDCHAR
STARTCHAR 247
ENCODING 247
SWIDTH 792 0
DWIDTH 11 0
BBX 10 8 0 0
BITMAP
7F80
FFC0
E1C0
0FC0
0F80
0000
0E00
0E00
ENDCHAR
STARTCHAR 248
ENCODING 248
SWIDTH 792 0
DWIDTH 11 0
BBX 10 8 0 0
BITMAP
7F80
FFC0
E1C0
0FC0
0F80
0000
0E00
0E00
ENDCHAR
STARTCHAR 249
ENCODING 249
SWIDTH 792 0
DWIDTH 11 0
BBX 10 8 0 0
BITMAP
7F80
FFC0
E1C0
0FC0
0F80
0000
0E00
0E00
ENDCHAR
STARTCHAR 250
ENCODING 250
SWIDTH 792 0
DWIDTH 11 0
BBX 10 8 0 0
BITMAP
7F80
FFC0
E1C0
0FC0
0F80
0000
0E00
0E00
ENDCHAR
STARTCHAR 251
ENCODING 251
SWIDTH 792 0
DWIDTH 11 0
BBX 10 8 0 0
BITMAP
7F80
FFC0
E1C0
0FC0
0F80
0000
0E00
0E00
ENDCHAR
STARTCHAR 252
ENCODING 252
SWIDTH 792 0
DWIDTH 11 0
BBX 10 8 0 0
BITMAP
7F80
FFC0
E1C0
0FC0
0F80
0000
0E00
0E00
ENDCHAR
STARTCHAR 253
ENCODING 253
SWIDTH 792 0
DWIDTH 11 0
BBX 10 8 0 0
BITMAP
7F80
FFC0
E1C0
0FC0
0F80
0000
0E00
0E00
ENDCHAR
STARTCHAR 254
ENCODING 254
SWIDTH 792 0
DWIDTH 11 0
BBX 10 8 0 0
BITMAP
7F80
FFC0
E1C0
0FC0
0F80
0000
0E00
0E00
ENDCHAR
STARTCHAR 255
ENCODING 255
SWIDTH 288 0
DWIDTH 4 0
BBX 1 1 2 3
BITMAP
80
ENDCHAR
ENDFONT
